# xmcd
#
# Track frame offsets: 
#        150
#        25029
#        39438
#        54789
#        71230
#        86695
#        111502
#        131807
#        149350
#        164991
#        182551
#        207010
#        226191
#        242119
#        259482
#        277755
#
# Disc length: 3871 seconds
#
# Revision: 0
# Processed by: cddbd v1.5.2PL0 Copyright (c) Steve Scherf et al.
# Submitted via: ExactAudioCopy v0.99pb4
#
DISCID=e90f1d10
DTITLE=The Lonesome Rogues - Wonders Pub 1-17-06 Set 1
DYEAR=2006
DGENRE=Bluegrass
TTITLE0=Tuning Up
TTITLE1=Bluegrass Breakdown
TTITLE2=Big Spike Hammer
TTITLE3=Waterbound
TTITLE4=Train, Train
TTITLE5=Sally Goodin
TTITLE6=Another Night
TTITLE7=Salt Creek
TTITLE8=I'm Lost and I'll Never Find My Way
TTITLE9=Little Maggie
TTITLE10=Hank Drank
TTITLE11=Shuckin' the Corn
TTITLE12=Mama Tried
TTITLE13=Big Ball in Boston
TTITLE14=I Been to Georgia on a Fast Train
TTITLE15=Lee Highway Blues
EXTD=
EXTT0=
EXTT1=
EXTT2=
EXTT3=
EXTT4=
EXTT5=
EXTT6=
EXTT7=
EXTT8=
EXTT9=
EXTT10=
EXTT11=
EXTT12=
EXTT13=
EXTT14=
EXTT15=
PLAYORDER=
